<svg width="419.52126464843747px" height="130.41494140625px" xmlns="http://www.w3.org/2000/svg" viewBox="40.23936767578127 9.792529296875003 419.52126464843747 130.41494140625" style="background: none;" preserveAspectRatio="xMidYMid"><defs><filter id="editing-hole" x="-100%" y="-100%" width="300%" height="300%"><feFlood flood-color="#000000" result="black"></feFlood><feMorphology operator="dilate" radius="2" in="SourceGraphic" result="erode"></feMorphology><feGaussianBlur in="erode" stdDeviation="4" result="blur"></feGaussianBlur><feOffset in="blur" dx="2" dy="2" result="offset"></feOffset><feComposite operator="atop" in="offset" in2="black" result="merge"></feComposite><feComposite operator="in" in="merge" in2="SourceGraphic" result="inner-shadow"></feComposite></filter></defs><g filter="url(#editing-hole)"><g transform="translate(104.73905944824219, 95.93000030517578)"><path d="M0 0L8.64-40.64L22.53-40.64L14.98-5.38L27.97-5.38L26.88 0L0 0ZM30.85 0L39.49-40.64L66.43-40.64L65.41-35.78L52.29-35.78L49.79-24.06L60.74-24.06L59.71-19.14L48.77-19.14L44.67 0L30.85 0ZM58.24-5.38L60.29-15.04L72.32-15.04L72.32-15.04Q72.32-14.85 72.16-14.11L72.16-14.11L72.16-14.11Q72-13.38 71.81-12.35L71.81-12.35L71.81-12.35Q71.62-11.33 71.46-10.11L71.46-10.11L71.46-10.11Q71.30-8.90 71.30-7.87L71.30-7.87L71.30-7.87Q71.30-7.23 71.42-6.53L71.42-6.53L71.42-6.53Q71.55-5.82 71.87-5.22L71.87-5.22L71.87-5.22Q72.19-4.61 72.80-4.19L72.80-4.19L72.80-4.19Q73.41-3.78 74.30-3.78L74.30-3.78L74.30-3.78Q75.97-3.78 76.96-5.15L76.96-5.15L76.96-5.15Q77.95-6.53 78.72-10.18L78.72-10.18L85.18-40.64L99.07-40.64L92.80-11.26L92.80-11.26Q91.97-7.49 89.92-5.15L89.92-5.15L89.92-5.15Q87.87-2.82 85.22-1.54L85.22-1.54L85.22-1.54Q82.56-0.26 79.55 0.16L79.55 0.16L79.55 0.16Q76.54 0.58 73.79 0.58L73.79 0.58L73.79 0.58Q70.59 0.58 68.29 0.16L68.29 0.16L68.29 0.16Q65.98-0.26 64.22-1.02L64.22-1.02L64.22-1.02Q62.46-1.79 61.06-2.91L61.06-2.91L61.06-2.91Q59.65-4.03 58.24-5.38L58.24-5.38ZM127.81-40.64L132.22 0L117.25 0L116.35-10.18L104.51-10.18L99.97 0L93.76 0L112.64-40.64L127.81-40.64ZM114.43-32.26L106.62-14.85L115.90-14.85L114.43-32.26ZM148.29-5.63L148.29-5.63L148.29-5.63Q148.29-4.16 147.68-3.01L147.68-3.01L147.68-3.01Q147.07-1.86 146.08-1.09L146.08-1.09L146.08-1.09Q145.09-0.32 143.81 0.10L143.81 0.10L143.81 0.10Q142.53 0.51 141.12 0.51L141.12 0.51L141.12 0.51Q138.69 0.51 136.99-0.80L136.99-0.80L136.99-0.80Q135.30-2.11 135.30-4.93L135.30-4.93L135.30-4.93Q135.30-6.40 135.87-7.55L135.87-7.55L135.87-7.55Q136.45-8.70 137.41-9.47L137.41-9.47L137.41-9.47Q138.37-10.24 139.62-10.66L139.62-10.66L139.62-10.66Q140.86-11.07 142.21-11.07L142.21-11.07L142.21-11.07Q144.83-11.07 146.56-9.76L146.56-9.76L146.56-9.76Q148.29-8.45 148.29-5.63ZM190.34-15.55L187.78-3.46L187.78-3.46Q186.18-2.69 184.48-1.95L184.48-1.95L184.48-1.95Q182.78-1.22 180.86-0.67L180.86-0.67L180.86-0.67Q178.94-0.13 176.67 0.19L176.67 0.19L176.67 0.19Q174.40 0.51 171.71 0.51L171.71 0.51L171.71 0.51Q163.14 0.51 158.50-3.33L158.50-3.33L158.50-3.33Q153.86-7.17 153.86-16.13L153.86-16.13L153.86-16.13Q153.86-21.31 155.46-25.89L155.46-25.89L155.46-25.89Q157.06-30.46 160.19-33.89L160.19-33.89L160.19-33.89Q163.33-37.31 167.94-39.30L167.94-39.30L167.94-39.30Q172.54-41.28 178.50-41.28L178.50-41.28L178.50-41.28Q181.31-41.28 183.65-40.90L183.65-40.90L183.65-40.90Q185.98-40.51 187.87-39.90L187.87-39.90L187.87-39.90Q189.76-39.30 191.26-38.59L191.26-38.59L191.26-38.59Q192.77-37.89 193.98-37.25L193.98-37.25L191.68-25.34L180.16-25.34L180.16-25.34Q180.22-25.98 180.32-27.01L180.32-27.01L180.32-27.01Q180.42-28.03 180.48-29.09L180.48-29.09L180.48-29.09Q180.54-30.14 180.61-31.17L180.61-31.17L180.61-31.17Q180.67-32.19 180.67-32.90L180.67-32.90L180.67-32.90Q180.67-33.41 180.61-34.08L180.61-34.08L180.61-34.08Q180.54-34.75 180.29-35.39L180.29-35.39L180.29-35.39Q180.03-36.03 179.49-36.45L179.49-36.45L179.49-36.45Q178.94-36.86 178.05-36.86L178.05-36.86L178.05-36.86Q176.38-36.86 175.01-35.49L175.01-35.49L175.01-35.49Q173.63-34.11 172.54-31.84L172.54-31.84L172.54-31.84Q171.46-29.57 170.62-26.69L170.62-26.69L170.62-26.69Q169.79-23.81 169.25-20.83L169.25-20.83L169.25-20.83Q168.70-17.86 168.42-14.98L168.42-14.98L168.42-14.98Q168.13-12.10 168.13-9.92L168.13-9.92L168.13-9.92Q168.13-9.28 168.19-8.32L168.19-8.32L168.19-8.32Q168.26-7.36 168.58-6.46L168.58-6.46L168.58-6.46Q168.90-5.57 169.57-4.93L169.57-4.93L169.57-4.93Q170.24-4.29 171.39-4.29L171.39-4.29L171.39-4.29Q173.38-4.29 175.23-6.75L175.23-6.75L175.23-6.75Q177.09-9.22 178.50-15.55L178.50-15.55L190.34-15.55ZM218.88-41.28L218.88-41.28L218.88-41.28Q224.38-41.28 227.81-39.87L227.81-39.87L227.81-39.87Q231.23-38.46 233.22-35.52L233.22-35.52L233.22-35.52Q234.50-33.54 235.20-31.04L235.20-31.04L235.20-31.04Q235.90-28.54 235.90-25.28L235.90-25.28L235.90-25.28Q235.90-22.46 235.39-19.65L235.39-19.65L235.39-19.65Q234.88-16.83 233.95-14.24L233.95-14.24L233.95-14.24Q233.02-11.65 231.71-9.38L231.71-9.38L231.71-9.38Q230.40-7.10 228.80-5.38L228.80-5.38L228.80-5.38Q225.79-2.11 221.86-0.80L221.86-0.80L221.86-0.80Q217.92 0.51 212.16 0.51L212.16 0.51L212.16 0.51Q206.59 0.51 203.20-0.64L203.20-0.64L203.20-0.64Q199.81-1.79 197.82-4.35L197.82-4.35L197.82-4.35Q196.42-6.14 195.62-8.90L195.62-8.90L195.62-8.90Q194.82-11.65 194.82-15.81L194.82-15.81L194.82-15.81Q194.82-22.91 197.34-28.51L197.34-28.51L197.34-28.51Q199.87-34.11 204.54-37.38L204.54-37.38L204.54-37.38Q207.36-39.36 210.82-40.32L210.82-40.32L210.82-40.32Q214.27-41.28 218.88-41.28ZM211.65-3.97L211.65-3.97L211.65-3.97Q213.12-3.97 214.43-5.28L214.43-5.28L214.43-5.28Q215.74-6.59 216.86-8.80L216.86-8.80L216.86-8.80Q217.98-11.01 218.91-13.82L218.91-13.82L218.91-13.82Q219.84-16.64 220.48-19.65L220.48-19.65L220.48-19.65Q221.12-22.66 221.47-25.63L221.47-25.63L221.47-25.63Q221.82-28.61 221.82-31.04L221.82-31.04L221.82-31.04Q221.82-34.37 221.15-35.62L221.15-35.62L221.15-35.62Q220.48-36.86 219.20-36.86L219.20-36.86L219.20-36.86Q217.73-36.86 216.38-35.58L216.38-35.58L216.38-35.58Q215.04-34.30 213.86-32.16L213.86-32.16L213.86-32.16Q212.67-30.02 211.74-27.23L211.74-27.23L211.74-27.23Q210.82-24.45 210.14-21.50L210.14-21.50L210.14-21.50Q209.47-18.56 209.12-15.68L209.12-15.68L209.12-15.68Q208.77-12.80 208.77-10.37L208.77-10.37L208.77-10.37Q208.77-6.72 209.57-5.34L209.57-5.34L209.57-5.34Q210.37-3.97 211.65-3.97ZM292.10-40.64L283.39 0L269.18 0L275.07-27.65L259.90 0L251.20 0L248.32-28.61L242.18 0L236.42 0L245.06-40.64L261.38-40.64L263.36-17.73L275.65-40.64L292.10-40.64Z" fill="#ccc"></path></g></g><style>text {
  font-size: 64px;
  font-family: Arial Black;
  dominant-baseline: central;
  text-anchor: middle;
}</style></svg>